<svg width="801" height="800" viewBox="0 0 801 800" fill="none" xmlns="http://www.w3.org/2000/svg">
<path d="M649.103 320.167C648.563 318.487 648.073 317.217 647.763 316.437C642.503 303.337 648.863 288.457 661.963 283.197C675.063 277.937 689.943 284.297 695.203 297.397C700.193 309.847 714.643 354.047 690.943 400.397C661.653 457.677 600.583 466.277 593.713 467.067C592.713 467.177 591.733 467.237 590.753 467.237" stroke="#0F282C" stroke-width="13" stroke-linecap="round" stroke-linejoin="round"/>
<path d="M653.003 344.757C653.033 354.517 651.223 365.797 645.433 377.117C627.953 411.287 589.493 416.087 587.863 416.277" stroke="#0F282C" stroke-width="13" stroke-linecap="round" stroke-linejoin="round"/>
<path d="M660.723 348.117L653.003 344.757" stroke="#0F282C" stroke-width="13" stroke-linecap="round" stroke-linejoin="round"/>
<path d="M649.103 320.167L646.813 319.247C640.903 316.887 634.273 320.297 632.763 326.487C631.553 331.427 634.083 336.527 638.753 338.557L653.013 344.767" stroke="#0F282C" stroke-width="13" stroke-linecap="round" stroke-linejoin="round"/>
<path d="M656.123 322.977L649.103 320.167" stroke="#0F282C" stroke-width="13" stroke-linecap="round" stroke-linejoin="round"/>
<path d="M156.213 412.287C155.673 386.157 156.023 328.627 168.593 308.657C161.483 312.377 155.733 315.287 151.223 317.517C144.853 320.667 137.533 315.367 138.613 308.337C141.423 289.997 152.923 259.757 196.623 242.617L177.173 235.247C170.853 232.857 169.443 224.527 174.643 220.217C186.593 210.317 214.223 198.097 276.193 204.607L261.503 190.797C256.103 185.717 258.983 176.637 266.323 175.627C287.393 172.707 324.823 171.987 361.553 193.337C374.423 177.527 412.953 170.107 434.833 167.087C441.703 166.137 446.923 173.147 444.063 179.467L435.323 198.807C435.323 198.807 487.653 173.577 535.493 179.707C542.043 180.547 545.363 188.037 541.623 193.477C537.883 198.917 533.903 204.607 533.903 204.607C533.903 204.607 604.113 206.857 618.933 245.437C620.713 250.077 618.393 255.287 613.733 257.007C599.573 262.207 593.833 263.887 593.833 263.887C593.833 263.887 616.683 310.137 620.643 349.697C621.153 354.767 617.243 359.207 612.143 359.407C597.173 359.967 592.543 361.827 592.543 361.827C592.543 361.827 614.433 503.357 587.893 574.947C583.443 586.937 569.633 592.497 558.073 587.007C558.073 587.007 550.023 621.157 514.263 618.577C478.503 615.997 468.193 602.857 468.193 602.857C468.193 602.857 452.403 626.947 411.813 621.797C371.223 616.647 373.803 597.957 373.803 597.957C373.803 597.957 366.073 624.047 332.573 619.537C319.363 617.277 314.213 607.297 314.213 607.297C314.213 607.297 300.363 630.817 272.333 632.747C244.303 634.677 256.223 611.487 256.223 611.487C256.223 611.487 237.213 634.677 221.433 625.337C205.653 615.997 187.283 523.857 187.283 523.857L167.633 413.037L165.343 415.627C162.203 419.187 156.313 417.037 156.223 412.287H156.213Z" fill="#FFE033"/>
<path d="M359.193 425.007C360.703 426.827 386.113 456.397 430.783 455.297C463.243 454.497 492.543 437.827 505.193 412.887" stroke="#0F282C" stroke-width="13" stroke-linecap="round" stroke-linejoin="round"/>
<path d="M370.273 362.938V385.648" stroke="#0F282C" stroke-width="13" stroke-linecap="round" stroke-linejoin="round"/>
<path d="M482.423 359.067V381.787" stroke="#0F282C" stroke-width="13" stroke-linecap="round" stroke-linejoin="round"/>
</svg>
