<svg width="801" height="800" viewBox="0 0 801 800" fill="none" xmlns="http://www.w3.org/2000/svg">
<path d="M175.39 412.287C174.85 386.157 175.2 328.627 187.77 308.657C180.66 312.377 174.91 315.287 170.4 317.517C164.03 320.667 156.71 315.367 157.79 308.337C160.6 289.997 172.1 259.757 215.8 242.617L196.35 235.247C190.03 232.857 188.62 224.527 193.82 220.217C205.77 210.317 233.4 198.097 295.37 204.607L280.68 190.797C275.28 185.717 278.16 176.637 285.5 175.627C306.57 172.707 344 171.987 380.73 193.337C393.6 177.527 432.13 170.107 454.01 167.087C460.88 166.137 466.1 173.147 463.24 179.467L454.5 198.807C454.5 198.807 506.83 173.577 554.67 179.707C561.22 180.547 564.54 188.037 560.8 193.477C557.06 198.917 553.08 204.607 553.08 204.607C553.08 204.607 623.29 206.857 638.11 245.437C639.89 250.077 637.57 255.287 632.91 257.007C618.75 262.207 613.01 263.887 613.01 263.887C613.01 263.887 635.86 310.137 639.82 349.697C640.33 354.767 636.42 359.207 631.32 359.407C616.35 359.967 611.72 361.827 611.72 361.827C611.72 361.827 633.61 503.357 607.07 574.947C602.62 586.937 588.81 592.497 577.25 587.007C577.25 587.007 569.2 621.157 533.44 618.577C497.68 615.997 487.37 602.857 487.37 602.857C487.37 602.857 471.58 626.947 430.99 621.797C390.4 616.647 392.98 597.957 392.98 597.957C392.98 597.957 385.25 624.047 351.75 619.537C338.54 617.277 333.39 607.297 333.39 607.297C333.39 607.297 319.54 630.817 291.51 632.747C263.48 634.677 275.4 611.487 275.4 611.487C275.4 611.487 256.39 634.677 240.61 625.337C224.83 615.997 206.46 523.857 206.46 523.857L186.81 413.037L184.52 415.627C181.38 419.187 175.49 417.037 175.4 412.287H175.39Z" fill="#FFE033"/>
<path d="M384.931 391.657C386.361 373.237 392.561 360.657 397.771 360.617C402.841 360.577 408.901 372.367 411.151 388.977" stroke="#0F282C" stroke-width="13" stroke-linecap="round" stroke-linejoin="round"/>
<path d="M451.48 386.737C452.91 368.317 459.11 355.737 464.32 355.697C469.39 355.657 475.45 367.447 477.7 384.057" stroke="#0F282C" stroke-width="13" stroke-linecap="round" stroke-linejoin="round"/>
<path d="M349.08 401.287C350.79 403.857 379.67 445.657 430.42 444.097C467.31 442.967 500.6 419.407 514.97 384.157" stroke="#0F282C" stroke-width="13" stroke-linecap="round" stroke-linejoin="round"/>
<path d="M145.72 430.247C145.05 428.617 144.6 427.327 144.33 426.537C139.89 413.137 125.43 405.877 112.03 410.317C98.6304 414.757 91.3704 429.217 95.8104 442.617C100.03 455.347 117.53 498.437 165.54 518.537C224.88 543.377 277.08 510.527 282.83 506.707C283.66 506.157 284.45 505.557 285.2 504.927" stroke="#0F282C" stroke-width="13" stroke-linecap="round" stroke-linejoin="round"/>
<path d="M158.61 451.557C164.89 459.027 173.55 466.477 185.28 471.387C220.68 486.207 253.17 465.047 254.53 464.137" stroke="#0F282C" stroke-width="13" stroke-linecap="round" stroke-linejoin="round"/>
<path d="M154.88 459.107L158.61 451.557" stroke="#0F282C" stroke-width="13" stroke-linecap="round" stroke-linejoin="round"/>
<path d="M145.72 430.247L146.88 428.067C149.87 422.447 157.14 420.777 162.28 424.527C166.39 427.527 167.75 433.047 165.5 437.607L158.61 451.547" stroke="#0F282C" stroke-width="13" stroke-linecap="round" stroke-linejoin="round"/>
<path d="M142.16 436.937L145.72 430.247" stroke="#0F282C" stroke-width="13" stroke-linecap="round" stroke-linejoin="round"/>
</svg>
