<svg width="801" height="800" viewBox="0 0 801 800" fill="none" xmlns="http://www.w3.org/2000/svg">
<path d="M220.692 242.53C213.372 251.46 203.072 275.89 196.662 292.2C192.722 302.22 189.913 312.65 188.263 323.29C184.543 347.28 177.963 392.66 178.353 411.45C178.453 416.2 184.333 418.35 187.473 414.79L189.763 412.2L209.412 523.02C209.412 523.02 227.772 615.15 243.562 624.5C259.352 633.85 278.353 610.65 278.353 610.65C278.353 610.65 266.433 633.84 294.463 631.91C322.493 629.98 336.343 606.46 336.343 606.46C336.343 606.46 341.492 616.45 354.702 618.7C388.202 623.21 395.932 597.12 395.932 597.12C395.932 597.12 393.352 615.8 433.942 620.96C474.532 626.11 490.323 602.02 490.323 602.02C490.323 602.02 500.633 615.16 536.393 617.74C572.153 620.32 580.203 586.17 580.203 586.17C591.763 591.65 605.572 586.1 610.022 574.11C636.562 502.52 614.672 360.99 614.672 360.99C614.672 360.99 619.302 359.14 634.272 358.57C639.372 358.38 643.282 353.93 642.772 348.86C638.802 309.3 615.963 263.06 615.963 263.06C615.963 263.06 621.712 261.38 635.902 256.17C641.042 254.28 643.233 248.17 640.393 243.48C582.293 147.43 457.463 197.99 457.463 197.99L465.912 179.3C468.632 173.28 464.323 166.45 457.723 166.28C317.673 162.66 260.143 194.48 220.703 242.54L220.692 242.53Z" fill="#FFE033"/>
<path d="M445.942 446.18C446.452 446.8 455.072 456.82 470.222 456.45C481.232 456.18 491.172 450.53 495.452 442.07" stroke="#0F282C" stroke-width="13" stroke-linecap="round" stroke-linejoin="round"/>
<path d="M394.192 364.07V386.79" stroke="#0F282C" stroke-width="13" stroke-linecap="round" stroke-linejoin="round"/>
<path d="M506.342 360.21V382.92" stroke="#0F282C" stroke-width="13" stroke-linecap="round" stroke-linejoin="round"/>
<path d="M497.663 537.72C504.793 530.23 512.933 536.68 532.533 527.24C538.383 524.42 542.013 521.75 546.253 523.18C549.693 524.33 553.153 528.05 555.873 539.5C560.723 559.94 560.053 586.49 548.813 589.29C544.543 590.35 542.893 590.37 530.983 584.46C512.473 575.27 504.833 579.64 498.053 572.24C490.113 563.58 489.873 545.92 497.663 537.74V537.72Z" fill="#001BF4" stroke="#001BF4" stroke-width="13" stroke-linecap="round" stroke-linejoin="round"/>
<path d="M465.952 525.88H446.312C436.752 525.88 429.002 533.63 429.002 543.19V562.83C429.002 572.39 436.752 580.14 446.312 580.14H465.952C475.512 580.14 483.262 572.39 483.262 562.83V543.19C483.262 533.63 475.512 525.88 465.952 525.88Z" fill="#001BF4" stroke="#001BF4" stroke-width="13" stroke-linecap="round" stroke-linejoin="round"/>
<path d="M413.882 537.72C406.752 530.23 398.612 536.68 379.012 527.24C373.162 524.42 369.532 521.75 365.292 523.18C361.852 524.33 358.392 528.05 355.672 539.5C350.822 559.94 351.492 586.49 362.732 589.29C367.002 590.35 368.652 590.37 380.562 584.46C399.072 575.27 406.712 579.64 413.492 572.24C421.432 563.58 421.672 545.92 413.882 537.74V537.72Z" fill="#001BF4" stroke="#001BF4" stroke-width="13" stroke-linecap="round" stroke-linejoin="round"/>
<path d="M244.602 446.44C199.772 446.58 164.102 476.79 159.172 512.76C154.122 549.63 179.332 581.39 182.242 584.02" stroke="#0F282C" stroke-width="13" stroke-linecap="round" stroke-linejoin="round"/>
<path d="M255.023 491.46C219.043 504.4 210.183 515.56 210.083 524C209.933 536.49 229.023 539.1 238.353 559.6C248.513 581.94 242.313 615.04 222.403 627.73C207.073 637.51 183.673 635.12 181.083 627.73C178.883 621.43 191.743 611.27 200.313 605.26" stroke="#0F282C" stroke-width="13" stroke-linecap="round" stroke-linejoin="round"/>
<path d="M190.733 579.63C171.003 589.88 156.453 596.58 160.293 606.45C163.853 615.62 178.203 610.77 200.333 605.26" stroke="#0F282C" stroke-width="13" stroke-linecap="round" stroke-linejoin="round"/>
</svg>
