<svg width="1220" height="814" viewBox="0 0 1220 814" fill="none" xmlns="http://www.w3.org/2000/svg">
    <g clip-path="url(#clip0_2018_51)">
    <rect width="1220" height="814" fill="white"/>
    <path d="M1172.6 543.051L1090.17 651.323V523H1029.85V661.348L933.347 589.167L867 637.288L989.642 715.485L893.137 751.576V835.788L995.674 795.687L941.389 883.909L995.674 920L1049.96 817.742L1058 920L1148.47 893.934L1130.38 791.677L1212.81 847.818L1249 791.677L1154.51 733.53L1240.96 715.485L1226.88 671.374L1140.43 685.409L1212.81 589.167L1172.6 543.051Z" fill="#001BF4"/>
    <path d="M469.358 464.185C469.358 464.185 275.855 473 202 473C262.561 252.615 302.443 115.976 315.738 376.03C368.914 189.438 402.888 149.769 402.888 370.154C507.764 133.607 478.221 349.585 469.358 464.185Z" fill="#001BF4"/>
    <circle cx="896" cy="278" r="31" fill="#E5E8FE"/>
    <circle cx="896" cy="360" r="31" fill="#E5E8FE"/>
    <circle cx="814" cy="278" r="31" fill="#E5E8FE"/>
    <circle cx="814" cy="360" r="31" fill="#E5E8FE"/>
    </g>
    <defs>
    <clipPath id="clip0_2018_51">
    <rect width="1220" height="814" fill="white"/>
    </clipPath>
    </defs>
    </svg>
    